<?xml version="1.0" encoding="UTF-8"?>
<svg width="219px" height="45px" viewBox="0 0 219 45" version="1.1" xmlns="http://www.w3.org/2000/svg" xmlns:xlink="http://www.w3.org/1999/xlink">
    <!-- Generator: Sketch 55.1 (78136) - https://sketchapp.com -->
    <title>Logo sfeir home</title>
    <desc>Created with Sketch.</desc>
    <g id="Welcome" stroke="none" stroke-width="1" fill="none" fill-rule="evenodd">
        <g id="SFEIR-HOME-WEB" transform="translate(-30.000000, -30.000000)">
            <g id="Logo-sfeir-home" transform="translate(30.000000, 30.000000)">
                <path d="M160.04,32 L156.248,32 L156.248,25.376 L148.64,25.376 L148.64,32 L144.848,32 L144.848,15.2 L148.64,15.2 L148.64,22.208 L156.248,22.208 L156.248,15.2 L160.04,15.2 L160.04,32 Z M171.56,15.08 C176.696,15.08 180.584,18.728 180.584,23.6 C180.584,28.448 176.696,32.168 171.56,32.168 C166.424,32.168 162.536,28.472 162.536,23.6 C162.536,18.704 166.424,15.08 171.56,15.08 Z M171.608,18.392 C168.776,18.392 166.424,20.648 166.424,23.6 C166.424,26.552 168.8,28.856 171.608,28.856 C174.416,28.856 176.696,26.552 176.696,23.6 C176.696,20.648 174.416,18.392 171.608,18.392 Z M201.32,32 L197.912,32 L197.912,20.672 L193.448,30.296 L190.976,30.296 L186.512,20.672 L186.512,32 L183.08,32 L183.08,15.2 L187.328,15.2 L192.224,25.472 L197.096,15.2 L201.32,15.2 L201.32,32 Z M217.832,18.344 L208.832,18.344 L208.832,21.992 L216.944,21.992 L216.944,25.136 L208.832,25.136 L208.832,28.856 L218.096,28.856 L218.096,32 L205.04,32 L205.04,15.2 L217.832,15.2 L217.832,18.344 Z" id="HOME" fill="#054F84" fill-rule="nonzero"></path>
                <g id="Logo-SFEIR-Bleu">
                    <g id="SFEIRLogoBleuFULL">
                        <path d="M31.6988232,9.87582645 C31.2889848,11.5265083 30.918826,13.0183884 30.5391146,14.5448554 C29.6176671,14.3490496 28.7412265,14.1279545 27.8528453,13.9825413 C26.0314434,13.6861364 24.2058163,13.6694008 22.4428315,14.2856405 C21.802477,14.5079598 21.2055936,14.8422153 20.6792956,15.2732231 C19.4264503,16.3221694 19.566982,18.1653099 20.9732182,18.9866529 C21.7590937,19.4103321 22.5822692,19.7589472 23.4320649,20.0279752 C25.427616,20.7293802 27.4823191,21.273843 29.428087,22.0920248 C32.6191685,23.4321694 34.4431423,25.8515702 34.4314418,29.4433884 C34.4196285,33.0660744 32.5923481,35.5239669 29.4306588,37.0578719 C26.820442,38.3243802 24.0410359,38.4313017 21.2230525,38.2232231 C19.2999361,38.1059025 17.4138985,37.635741 15.6568923,36.8356612 C15.2540345,36.6472934 15.0798854,36.4747314 15.2049862,35.9639256 C15.5409765,34.5981198 15.788239,33.2103719 16.0880401,31.7458264 C16.3702058,31.8860331 16.6044254,32.0035537 16.8397472,32.1205165 C19.6887762,33.528905 22.6799903,34.0172107 25.781058,33.3005579 C26.71898,33.0639649 27.5994339,32.6363812 28.3686796,32.043905 C29.1240279,31.490106 29.5503699,30.5863355 29.5010051,29.6435728 C29.4516403,28.7008101 28.933306,27.847723 28.1243564,27.3778512 C27.0006533,26.7065702 25.7468895,26.2377893 24.5166395,25.7684504 C23.1572472,25.2496488 21.7499088,24.8602686 20.3805967,24.367686 C17.9447127,23.493719 16.0138246,22.0473967 15.2380525,19.4225207 C14.0858757,15.5205372 15.9414461,11.8376033 19.9022376,10.1707438 C22.1705856,9.21570248 24.5603605,8.94997934 26.9841202,9.17014463 C28.5398895,9.31128099 30.0791257,9.62702479 31.6980884,9.8767562 L31.6988232,9.87582645 Z M54.7677099,1.07181818 C54.3314185,2.44245868 53.9226823,3.72254132 53.5207431,4.98477273 C52.3219061,4.76404959 51.1693619,4.48140496 50.0026727,4.35830579 C49.1166286,4.27172364 48.2235508,4.29226081 47.3423052,4.41948347 C46.4710958,4.51004421 45.7710224,5.18624684 45.6408605,6.06291322 C45.4321754,7.34485537 45.382576,8.65301653 45.2574751,10.0281198 L52.1940497,10.0281198 L52.1940497,14.9411157 L45.3280166,14.9411157 L45.3280166,37.2856612 L40.4393481,37.2856612 L40.4393481,14.9764463 L37.0906506,14.9764463 L37.0906506,10.0619628 L40.4206105,10.0619628 C40.4500028,9.53311983 40.4481657,9.0678719 40.5095221,8.61154959 C40.6816506,7.29557851 40.773134,5.95394628 41.0925912,4.67330579 C41.6751091,2.35022727 43.1842182,0.886797521 45.5310069,0.350516529 C48.6625691,-0.365392562 51.6936464,0.148760331 54.7677099,1.07181818 L54.7677099,1.07181818 Z M120.22704,10.9667975 C119.605577,12.4640702 118.992198,13.9380992 118.362285,15.453781 C117.817793,15.2423554 117.299203,15.0432025 116.78245,14.8401446 C113.385439,13.5013017 110.539349,14.3693182 108.192928,17.0782438 C107.542821,17.8567783 106.936504,18.6717233 106.376854,19.5192149 C106.23526,19.7699189 106.168157,20.0566618 106.183599,20.3450207 C106.172087,25.7530785 106.169087,31.1605785 106.174598,36.5675207 L106.174598,37.289938 L101.521251,37.289938 L101.521251,10.0853926 L106.17074,10.0853926 L106.17074,14.2391529 C106.52308,13.7644215 106.769057,13.4267355 107.022381,13.0946281 C109.388642,9.97828512 112.514142,8.89884298 116.293253,9.6071281 C117.667634,9.84548995 118.995608,10.3044265 120.22704,10.9666116 L120.22704,10.9667975 Z M95.4456865,37.2971901 L90.800239,37.2971901 L90.800239,14.9814669 L83.0799931,14.9814669 L83.0799931,10.0909711 L95.4462376,10.0909711 L95.4462376,37.2983058 L95.4456865,37.2971901 Z M93.2111395,0.0223140496 C94.9146809,0.0266787223 96.2921785,1.42811533 96.2878768,3.15251033 C96.2835548,4.87690534 94.8990662,6.27126545 93.1955249,6.26691105 C91.5497417,6.26020661 90.1999019,4.83136364 90.204452,3.10035124 C90.1957437,1.41023166 91.5414668,0.0325546549 93.2111395,0.0223140496 L93.2111395,0.0223140496 Z" id="BLEU" fill="#054F84"></path>
                        <path d="M10.7366271,40.1602686 L10.7366271,44.9103719 L0.146961326,44.9103719 L0.146961326,2.18454545 L10.7208287,2.18454545 L10.7208287,6.93353306 C10.5330856,6.94413223 10.3295442,6.96477273 10.125268,6.96533058 C8.62901796,6.96774793 7.13350276,6.99359504 5.63835497,6.95231405 C5.05510221,6.93613636 4.88297376,7.09084711 4.88517818,7.69760331 C4.90685497,14.3592769 4.89711878,21.0215083 4.89711878,27.6837397 C4.89711878,31.6020868 4.90850829,35.5208058 4.88646409,39.4397107 C4.88352486,39.9919835 5.01505525,40.1890909 5.59426657,40.1732851 C7.08757735,40.1333058 8.58345994,40.1602686 10.0806285,40.1602686 L10.7366271,40.1602686 Z M132.853039,44.9365909 L122.29846,44.9365909 L122.29846,40.1602686 L123.45578,40.1602686 C124.795884,40.1602686 126.137825,40.1359091 127.476826,40.1717975 C128.007907,40.1859298 128.123823,39.9966322 128.122905,39.4958678 C128.107229,32.3245041 128.103677,25.1530165 128.11225,17.981405 C128.11225,14.5524793 128.096268,11.1237397 128.128783,7.69481405 C128.134294,7.07578512 127.943612,6.94152893 127.371014,6.9539876 C125.701901,6.98969008 124.034624,6.96607438 122.306359,6.96607438 L122.306359,2.20797521 L132.853039,2.20797521 L132.853039,44.9365909 Z M78.1532983,26.0743388 L57.1850401,26.0743388 L57.1850401,21.315124 L78.1532983,21.315124 L78.1532983,26.0743388 Z M57.1745691,10.1132851 L78.1483384,10.1132851 L78.1483384,14.8230372 L57.1753039,14.8230372 L57.1753039,10.1132851 L57.1745691,10.1132851 Z M78.149808,37.259814 L57.174018,37.259814 L57.174018,32.5511777 L78.149808,32.5511777 L78.149808,37.259814 Z" id="ORANGE" fill="#E75112"></path>
                    </g>
                </g>
            </g>
        </g>
    </g>
</svg>